<svg xmlns="http://www.w3.org/2000/svg" width="95" height="95" xmlnsv="https://vecta.io/nano"><path d="M47.5 0C21.266 0 0 21.266 0 47.5S21.266 95 47.5 95 95 73.734 95 47.5C94.97 21.279 73.721.03 47.5 0zm0 89.52c-23.925 0-42.02-18.094-42.02-42.02S23.574 5.481 47.5 5.481 89.519 23.575 89.519 47.5 71.426 89.52 47.5 89.52zm33.155-46.001v-2.651H67.393v7.961h10.612v2.651H67.393v2.651h13.264v-7.954H70.043v-2.658zm-66.31 0h10.612v2.658H14.345v7.954h13.264V40.868H14.345zm10.612 7.961h-7.961v-2.652h7.961zm5.303 2.651h2.651v-5.3h1.555l5.306 5.306h3.751l-5.305-5.3h5.305v-7.961H30.26zm2.651-10.612h7.961v2.658h-7.961zm29.178-2.651h2.651v13.264h-2.651zm-9.283 4.207l-4.213-4.206h-2.418v13.264h2.651V44.85l3.98 3.98 3.98-3.98v9.283h2.651V40.868h-2.425z"/></svg>